<?xml version="1.0" standalone="no"?>
<!DOCTYPE svg PUBLIC "-//W3C//DTD SVG 20010904//EN"
 "http://www.w3.org/TR/2001/REC-SVG-20010904/DTD/svg10.dtd">
<svg version="1.0" xmlns="http://www.w3.org/2000/svg"
 width="614.000000pt" height="614.000000pt" viewBox="0 0 614.000000 614.000000"
 preserveAspectRatio="xMidYMid meet">

<g transform="translate(0.000000,614.000000) scale(0.100000,-0.100000)"
fill="#000000" stroke="none">
<path d="M0 3070 l0 -3070 443 0 442 0 124 198 c187 296 240 368 342 470 167
166 294 244 626 386 193 82 467 186 490 185 10 0 41 -27 68 -61 63 -77 130
-127 231 -175 76 -36 83 -38 184 -38 92 0 112 3 160 26 30 14 85 50 122 80 52
41 69 61 74 86 3 18 8 33 10 33 3 0 33 -22 67 -48 35 -26 130 -88 212 -137
261 -154 455 -295 603 -439 119 -115 365 -433 406 -525 l19 -41 759 0 758 0 0
3070 0 3070 -3070 0 -3070 0 0 -3070z m2880 972 l35 -17 11 -130 c19 -219 52
-333 123 -428 73 -96 186 -173 288 -197 117 -27 386 -3 483 43 40 19 38 58 -5
91 -37 29 -77 83 -90 126 -6 18 13 3 66 -51 174 -178 337 -229 579 -183 45 8
84 14 86 12 2 -2 -1 -20 -6 -39 -5 -18 -16 -71 -26 -116 -23 -109 -28 -116
-59 -76 -40 50 -105 66 -260 66 -202 -1 -389 -52 -448 -122 -15 -18 -27 -36
-27 -40 0 -18 29 -44 51 -46 28 -2 27 3 14 -235 l-8 -145 27 -31 c50 -61 192
-64 305 -7 93 47 96 53 99 280 l3 195 90 -4 c50 -2 94 -9 101 -16 9 -9 9 -32
-1 -100 l-12 -87 41 -87 c78 -168 100 -330 55 -422 -36 -75 -212 -231 -359
-319 -131 -78 -277 -153 -506 -259 -187 -87 -234 -93 -384 -54 -50 13 -134 34
-186 46 -181 42 -407 124 -465 170 -5 4 -54 30 -107 59 -133 70 -180 103 -274
194 -56 52 -91 96 -110 135 -79 161 -92 186 -104 190 -13 5 -12 -11 6 -140 5
-38 3 -50 -13 -67 -30 -32 -113 -65 -168 -65 -48 -1 -145 30 -145 47 0 4 -5 7
-11 7 -26 0 -113 78 -149 132 -53 81 -95 241 -88 335 7 89 40 178 80 220 48
49 143 76 251 71 98 -5 141 -23 240 -103 38 -30 73 -55 78 -55 18 0 9 43 -17
72 -20 24 -24 40 -22 72 3 34 6 41 23 39 84 -9 116 -9 172 3 76 16 159 58 186
96 19 25 19 28 3 50 -57 78 -66 92 -66 100 0 31 202 57 493 65 271 7 267 6
267 93 0 59 -26 109 -70 132 -73 39 -252 11 -465 -73 -123 -49 -181 -81 -222
-125 l-32 -34 -9 33 c-20 65 -32 135 -42 245 -10 109 -10 116 12 160 49 98
215 227 345 269 143 45 283 56 343 25z m1720 -1174 c7 -46 11 -126 9 -178 -4
-80 -9 -104 -32 -152 -32 -63 -63 -97 -76 -82 -5 5 -13 34 -19 64 -13 67 -54
180 -88 238 l-26 43 28 65 27 64 56 1 c31 0 65 4 76 9 11 5 23 9 26 9 4 1 12
-36 19 -81z m-1902 -1411 c73 -75 239 -197 332 -243 57 -29 84 -36 135 -37 42
-1 65 -6 65 -14 0 -18 -61 -64 -125 -94 -53 -24 -70 -27 -151 -26 -87 2 -95 4
-185 49 -107 54 -205 138 -193 166 4 9 9 84 12 167 l5 149 24 -29 c14 -17 50
-56 81 -88z"/>
<path d="M2707 2999 c-145 -21 -360 -83 -458 -132 -60 -30 -64 -34 -64 -67 0
-35 0 -35 45 -34 25 0 105 17 177 38 73 20 137 35 142 31 6 -3 8 -27 6 -53 -2
-26 -9 -101 -16 -167 -17 -188 6 -223 168 -261 45 -10 87 -14 125 -9 64 7 167
45 178 66 10 18 28 201 36 354 4 80 11 131 22 152 15 30 15 33 -2 52 -11 12
-35 25 -55 31 -42 12 -221 11 -304 -1z"/>
<path d="M1557 2803 c-17 -16 -2 -41 67 -114 83 -86 105 -123 151 -254 18 -49
37 -91 43 -93 6 -2 15 13 21 33 28 102 -103 337 -233 416 -34 21 -39 22 -49
12z"/>
<path d="M3970 283 c0 -34 21 -133 51 -245 9 -33 14 -38 40 -38 36 0 38 -16
-29 182 -26 76 -50 138 -54 138 -5 0 -8 -17 -8 -37z"/>
<path d="M1787 203 c-3 -5 -5 -52 -6 -105 l-2 -98 30 0 c36 0 36 -3 14 117
-15 85 -24 106 -36 86z"/>
</g>
</svg>
