<?xml version="1.0" standalone="no"?>
<!DOCTYPE svg PUBLIC "-//W3C//DTD SVG 20010904//EN"
 "http://www.w3.org/TR/2001/REC-SVG-20010904/DTD/svg10.dtd">
<svg version="1.0" xmlns="http://www.w3.org/2000/svg"
 width="500.000000pt" height="500.000000pt" viewBox="0 0 500.000000 500.000000"
 preserveAspectRatio="xMidYMid meet">

<g transform="translate(0.000000,500.000000) scale(0.100000,-0.100000)"
fill="#000000" stroke="none">
<path d="M2515 4660 c-22 -4 -71 -13 -110 -19 -38 -7 -99 -21 -134 -31 -35
-11 -77 -20 -95 -20 -34 0 -63 -14 -152 -74 -32 -21 -113 -66 -179 -99 l-120
-61 37 -11 c48 -13 52 -19 37 -47 -30 -58 -75 -101 -138 -133 -37 -18 -73 -40
-80 -49 -7 -9 -22 -69 -33 -133 -19 -107 -19 -131 -9 -258 6 -77 22 -189 36
-250 l24 -110 -25 -37 c-13 -21 -24 -40 -24 -44 0 -4 -19 -34 -41 -67 -44 -63
-89 -157 -89 -182 0 -25 -13 -17 -66 40 -33 36 -56 54 -66 50 -19 -8 -38 53
-38 123 0 28 -5 54 -10 57 -6 4 -10 -9 -10 -32 0 -56 -10 -82 -32 -89 -29 -9
-58 22 -58 63 0 18 -4 33 -8 33 -5 0 -15 11 -22 25 -14 25 -53 35 -65 15 -3
-6 -22 1 -45 15 -32 20 -38 22 -33 7 4 -9 15 -26 25 -36 10 -11 18 -27 19 -35
0 -10 4 -8 9 6 11 28 44 20 35 -7 -3 -10 -1 -21 4 -25 7 -4 8 1 4 11 -4 12 -3
15 5 10 14 -9 16 6 2 20 -6 6 -6 15 0 24 9 13 11 13 20 0 13 -20 13 -50 0 -50
-5 0 -10 -7 -10 -16 0 -9 -10 -24 -22 -33 -25 -21 -19 -51 10 -51 14 0 21 13
31 50 7 28 16 50 19 50 8 0 14 -41 13 -85 0 -16 0 -41 -1 -55 0 -14 5 -26 10
-28 16 -6 11 -32 -6 -32 -13 0 -12 -5 5 -26 12 -15 21 -33 21 -40 0 -10 34
-76 81 -154 5 -8 21 -35 35 -60 15 -25 37 -56 49 -70 12 -14 39 -52 60 -85 22
-33 50 -72 64 -87 13 -15 21 -31 18 -35 -4 -3 -51 2 -105 11 -117 22 -377 20
-391 -2 -10 -17 -35 -7 -91 35 -25 18 -49 33 -53 32 -5 0 -15 8 -23 18 -7 10
-14 13 -14 6 0 -6 9 -18 21 -26 26 -19 69 -77 69 -94 0 -7 -11 -15 -25 -19
-24 -6 -35 -24 -15 -24 6 0 10 -8 10 -18 0 -23 30 -48 53 -44 11 2 17 -3 17
-16 0 -15 16 -22 98 -41 120 -28 247 -47 377 -58 91 -7 100 -10 103 -29 3 -19
-5 -23 -57 -33 -96 -19 -365 -146 -357 -168 9 -21 -35 -25 -104 -9 -90 22 -94
19 -27 -12 32 -16 54 -31 51 -35 -4 -4 -1 -7 6 -7 9 0 5 -9 -10 -25 -18 -19
-33 -25 -64 -23 -44 1 -85 -7 -97 -19 -16 -17 -14 -47 4 -51 15 -3 18 0 13 16
-5 13 -1 22 10 26 12 5 29 -6 55 -34 40 -43 69 -52 69 -21 0 12 -13 25 -35 35
-51 24 -49 31 10 33 46 2 54 -1 58 -19 5 -19 8 -20 23 -7 12 9 15 10 10 2 -10
-18 -1 -16 18 2 13 13 15 13 21 -5 7 -23 7 -23 60 -10 22 5 68 14 103 20 34 6
117 28 185 50 67 21 149 47 182 58 33 10 69 23 80 28 15 6 11 -3 -15 -36 -64
-81 -203 -208 -253 -231 -12 -5 -53 -30 -92 -54 -204 -129 -471 -254 -550
-257 -25 0 -45 -6 -45 -12 0 -6 13 -38 29 -71 34 -74 114 -150 174 -166 67
-18 195 -7 241 21 27 17 41 20 44 12 2 -7 11 -12 19 -12 13 0 13 2 2 17 -10
11 -10 14 -1 9 6 -4 12 -2 12 3 0 6 7 11 17 11 9 0 13 3 10 7 -4 3 0 15 10 25
15 17 15 18 -1 18 -10 0 -20 -9 -23 -20 -3 -11 -17 -23 -32 -26 -14 -4 -33
-13 -41 -20 -27 -23 -92 -46 -102 -36 -9 9 58 58 74 54 4 -1 16 11 28 25 25
32 9 45 -21 17 -15 -13 -22 -15 -31 -6 -14 14 -58 16 -58 4 0 -11 -45 -32 -66
-32 -24 0 -12 21 22 39 16 9 30 19 31 24 9 31 53 88 80 102 27 15 31 21 22 36
-6 13 -21 19 -44 19 -18 0 -36 4 -39 9 -9 14 36 27 89 25 121 -3 135 -9 117
-48 -13 -28 3 -49 19 -25 8 12 11 12 19 -1 7 -12 14 -13 41 -3 l31 12 -6 -32
c-3 -18 -22 -55 -41 -83 -19 -28 -35 -52 -35 -55 0 -2 28 -3 62 -1 51 3 71 -1
108 -21 94 -51 275 -150 279 -154 3 -2 -9 -35 -27 -74 l-31 -70 36 -57 c58
-92 165 -212 207 -233 l38 -20 22 20 c12 11 28 38 35 58 25 71 53 133 61 133
4 0 13 -35 19 -77 6 -42 18 -84 25 -92 8 -9 17 -41 21 -71 11 -91 45 -234 61
-257 21 -33 36 -29 94 25 40 37 58 65 86 132 55 133 57 143 41 207 -11 43 -12
63 -4 81 8 17 8 28 0 41 -7 12 -9 43 -4 92 l8 74 18 -40 c14 -32 19 -73 22
-204 3 -142 6 -169 23 -196 32 -52 177 -145 226 -145 15 0 16 9 11 72 -3 40
-11 109 -16 153 -7 55 -7 92 0 119 15 55 30 33 37 -54 2 -39 7 -72 11 -74 3
-2 21 -7 39 -11 26 -5 33 -3 38 12 22 68 164 322 207 372 20 23 40 89 34 112
-7 27 5 31 39 10 17 -10 65 -30 106 -45 108 -37 202 -36 283 3 33 15 68 38 78
49 19 20 18 22 -10 59 -15 20 -36 45 -45 55 -9 9 -21 34 -27 55 -14 48 -14 53
0 53 5 0 7 -5 3 -12 -5 -7 0 -9 14 -6 12 3 23 1 24 -4 2 -6 12 -3 22 7 17 18
19 18 49 0 l32 -19 -18 27 c-9 14 -17 33 -17 42 0 15 3 16 130 19 53 2 122
-16 128 -32 2 -8 -13 -12 -47 -12 -73 0 -81 -32 -16 -63 19 -9 35 -23 35 -30
0 -8 9 -22 20 -32 11 -10 20 -24 20 -31 0 -8 18 -23 40 -34 23 -12 38 -25 35
-30 -10 -17 34 -11 73 9 20 11 51 34 68 53 29 32 94 128 94 141 0 3 -31 12
-69 21 -148 34 -287 99 -375 176 -37 33 -106 131 -106 151 0 6 -23 35 -51 65
-29 30 -48 54 -43 54 5 0 43 -10 84 -21 41 -12 91 -25 110 -30 81 -22 144 -27
159 -12 11 12 15 12 22 1 5 -7 9 -8 9 -3 0 6 4 4 8 -3 7 -9 15 -7 34 11 21 20
34 23 65 19 21 -3 50 -5 66 -6 40 0 33 -10 -22 -30 -61 -22 -81 -66 -29 -66
10 0 22 10 27 24 10 24 36 40 52 30 5 -3 9 -2 9 3 1 24 18 35 39 24 11 -7 21
-16 21 -22 0 -6 -4 -8 -8 -5 -5 3 -9 -2 -9 -10 0 -8 7 -13 16 -12 9 2 16 13
16 27 0 29 -46 49 -112 50 -58 1 -95 19 -91 45 2 16 19 27 68 44 l65 22 -106
-6 c-101 -6 -106 -5 -111 14 -6 22 -97 69 -313 161 -38 16 -83 32 -100 36 -58
13 -65 16 -65 30 0 15 49 21 265 30 77 4 190 13 250 21 61 8 124 16 140 18 17
2 29 9 27 15 -1 6 5 14 13 16 8 3 23 8 33 12 9 3 23 5 31 4 8 -2 10 3 6 11 -6
10 -5 10 5 1 9 -9 19 -5 41 18 15 16 34 29 42 29 7 0 19 6 27 13 8 6 5 0 -8
-14 -12 -14 -22 -31 -22 -38 0 -7 -6 -11 -15 -8 -23 9 -25 -6 -5 -32 22 -30
50 -22 50 14 0 14 5 25 11 25 5 0 7 5 4 10 -4 7 2 9 19 4 16 -4 26 -2 26 5 0
6 -7 11 -15 11 -25 0 -6 26 21 28 21 2 24 -1 19 -18 -4 -14 -2 -20 8 -20 20 0
30 29 16 46 -17 21 -98 17 -136 -6 -23 -13 -42 -18 -63 -14 -52 11 -55 28 -15
73 20 22 45 43 56 46 10 4 19 10 19 16 0 5 -39 -11 -86 -36 -82 -43 -124 -55
-124 -36 0 16 -42 22 -225 32 -136 8 -203 7 -272 -2 -51 -7 -95 -10 -98 -7 -3
3 27 38 66 79 128 134 247 266 259 290 7 13 16 26 19 29 22 17 98 140 87 140
-8 0 -17 8 -20 17 -4 10 -4 14 0 10 10 -9 37 30 29 43 -3 6 0 10 7 10 8 1 7 6
-5 14 -17 13 -17 16 -3 45 9 16 16 38 16 48 1 12 5 8 14 -12 7 -16 11 -34 8
-39 -3 -5 -9 -1 -14 10 -8 18 -8 18 -5 -1 2 -12 10 -19 19 -19 10 1 16 -3 15
-8 -4 -17 31 -34 44 -21 12 12 3 56 -11 48 -4 -3 -10 5 -14 18 -9 33 -7 39 7
31 9 -5 9 -3 -1 7 -11 11 -14 12 -21 1 -6 -11 -9 -9 -13 6 -7 26 25 47 42 27
6 -8 18 -11 26 -8 8 3 18 -4 23 -18 5 -13 10 -18 10 -11 1 15 41 60 41 46 0
-5 6 1 13 12 6 12 18 31 25 43 7 11 9 21 4 21 -6 0 -12 -8 -14 -18 -7 -24 -99
-72 -105 -54 -3 6 -18 12 -33 12 -33 0 -80 -52 -80 -87 0 -26 -18 -41 -58 -49
-28 -6 -33 -3 -42 20 -5 15 -10 48 -10 74 -1 58 -14 39 -24 -33 -9 -67 -27
-117 -43 -111 -15 6 -66 -18 -83 -40 -21 -24 -90 -77 -96 -72 -2 3 -9 41 -14
86 -14 107 -62 263 -104 333 -31 52 -33 60 -25 105 24 141 51 382 47 423 -3
30 -25 87 -62 161 -108 217 -154 271 -258 306 -27 9 -63 14 -79 12 -16 -3 -29
-2 -29 1 0 3 -5 34 -10 69 -16 96 -64 159 -155 205 -78 39 -302 59 -420 37z
m-916 -775 c0 -5 -6 1 -14 15 -8 14 -14 30 -14 35 0 6 6 -1 14 -15 8 -14 14
-29 14 -35z m453 -122 c-3 -82 1 -142 9 -172 7 -25 12 -48 10 -50 -3 -5 21
-21 32 -21 4 0 2 10 -5 23 -16 29 -16 178 1 275 l13 73 42 -6 c49 -9 76 -21
77 -38 0 -7 2 -20 4 -31 2 -10 12 -62 22 -115 l18 -96 9 90 c4 50 10 91 11 93
1 2 18 -4 36 -12 60 -25 145 -46 188 -46 23 0 51 -5 61 -10 22 -12 301 -19
294 -8 -3 4 2 5 10 2 9 -3 16 -2 16 2 0 5 14 9 30 10 17 1 30 -3 30 -7 0 -5 6
-9 13 -9 6 1 2 9 -10 19 l-23 19 47 16 c57 20 63 20 63 2 0 -8 10 -22 22 -30
20 -15 23 -14 33 2 5 9 17 18 25 20 8 2 17 8 18 13 2 5 14 9 27 9 22 0 27 13
13 36 -4 6 -1 11 8 11 20 0 45 -86 49 -172 3 -38 7 -81 10 -95 4 -14 8 -59 9
-100 4 -95 15 -166 32 -199 15 -29 13 -41 -26 -166 -37 -115 -46 -160 -31
-151 6 4 11 0 11 -9 0 -11 7 -15 22 -13 14 2 36 25 62 65 24 36 48 62 59 62
10 1 20 8 23 16 6 16 34 21 34 6 0 -19 -44 -108 -68 -136 -30 -37 -82 -67
-142 -84 -40 -11 -49 -19 -73 -65 -39 -74 -81 -121 -146 -163 -54 -36 -184
-103 -199 -103 -4 0 -6 31 -4 70 3 66 2 71 -23 93 -15 12 -38 31 -50 43 -33
31 -48 34 -108 24 -49 -8 -117 -3 -219 16 -32 6 -40 3 -67 -25 -17 -17 -34
-31 -38 -31 -4 0 -27 -17 -51 -39 -36 -34 -42 -44 -42 -80 l0 -42 -90 47 c-71
36 -103 61 -150 112 -33 37 -60 72 -60 77 0 27 -41 55 -81 55 -52 0 -83 21
-124 85 -76 119 -122 275 -82 275 8 0 24 11 36 24 18 19 19 25 8 29 -8 3 -24
-3 -36 -14 -27 -25 -28 -6 -1 21 37 37 110 20 110 -25 0 -22 -3 -24 -28 -19
-41 8 -62 -17 -62 -72 0 -48 37 -120 68 -131 28 -10 82 -66 82 -85 0 -10 4
-18 9 -18 16 0 21 99 5 142 -8 22 -17 65 -20 94 -6 50 -5 56 19 74 21 17 25
25 17 44 -15 40 -9 186 16 356 22 152 26 167 52 193 16 16 36 29 44 31 9 1 22
7 30 14 13 10 55 30 68 31 3 1 3 -56 2 -126z m1418 39 c0 -5 -7 -17 -15 -28
-14 -18 -14 -17 -4 9 12 27 19 34 19 19z m25 -29 c-7 -42 -23 -66 -36 -57 -8
4 29 94 39 94 2 0 1 -17 -3 -37z m-45 -535 c14 -23 19 -49 18 -83 -1 -39 -2
-42 -5 -15 -4 39 -33 100 -46 100 -5 0 -7 -9 -4 -21 3 -12 3 -18 0 -15 -8 7
-53 -33 -53 -47 0 -6 -7 -18 -16 -28 -16 -17 -22 -37 -23 -75 -1 -11 -17 -38
-36 -60 l-34 -39 13 45 c25 86 129 270 152 270 8 0 23 -15 34 -32z m-1654
-173 c6 -19 9 -35 5 -35 -14 1 -40 50 -35 65 8 20 15 13 30 -30z m-606 11 c0
-2 -7 -6 -15 -10 -8 -3 -15 -1 -15 4 0 6 7 10 15 10 8 0 15 -2 15 -4z m2750
-106 c8 -5 11 -10 5 -10 -5 0 -17 5 -25 10 -8 5 -10 10 -5 10 6 0 17 -5 25
-10z m-2316 -155 c32 -19 62 -35 66 -35 11 0 97 -68 218 -173 l103 -90 -53
-18 c-42 -14 -56 -15 -68 -5 -187 152 -350 315 -350 351 0 13 31 2 84 -30z
m1826 -71 c0 -35 -127 -135 -328 -257 -88 -54 -134 -69 -146 -48 -6 8 52 60
95 86 9 6 54 35 100 66 46 30 91 58 99 62 8 4 49 27 90 52 74 43 90 50 90 39z
m-840 -49 c79 0 100 -3 122 -20 15 -11 28 -29 29 -40 2 -39 1 -107 -3 -108 -1
-1 -23 -12 -48 -25 -25 -12 -62 -22 -82 -22 -31 0 -42 6 -64 35 l-27 35 -32
-37 -32 -37 -63 19 c-77 23 -105 45 -120 91 -12 36 -12 36 36 80 l49 44 70 -7
c39 -4 113 -8 165 -8z m-417 -205 c18 -44 27 -52 74 -72 29 -12 53 -28 53 -35
0 -7 7 -13 15 -13 23 0 18 14 -16 39 -17 13 -28 25 -25 29 4 3 -7 11 -24 18
-32 14 -41 34 -15 34 32 0 75 -31 95 -68 11 -20 41 -61 65 -90 25 -29 45 -57
45 -62 0 -5 -10 -14 -21 -21 -15 -8 -19 -8 -15 0 10 16 -3 14 -20 -4 -8 -8
-21 -12 -29 -9 -17 7 -21 -21 -5 -31 19 -12 10 -34 -21 -49 -42 -21 -122 -31
-145 -18 -17 10 -17 11 9 21 16 6 33 11 38 11 5 0 9 11 9 25 0 17 -7 26 -23
30 -12 3 -36 26 -52 50 -17 25 -35 45 -42 45 -6 0 -19 7 -28 16 -26 26 -3 39
36 20 40 -20 44 -20 64 1 13 12 19 13 25 4 4 -7 16 -11 26 -9 15 3 11 8 -21
28 -22 13 -42 27 -45 30 -3 4 -13 9 -23 13 -10 4 -16 11 -12 17 3 5 -10 26
-30 45 -19 20 -35 40 -35 45 0 6 16 10 36 10 33 0 37 -3 57 -50z m717 -25 c0
-9 -11 -20 -24 -26 -13 -6 -27 -20 -29 -30 -3 -11 -14 -19 -26 -19 -12 0 -21
-4 -21 -10 0 -5 -5 -10 -11 -10 -6 0 -17 -7 -25 -15 -9 -8 -19 -15 -24 -15
-11 0 -3 22 30 93 l22 47 54 0 c42 0 54 -3 54 -15z m-398 -63 c54 -3 83 0 93
8 9 7 17 11 20 8 2 -2 -25 -21 -60 -41 -64 -37 -65 -37 -98 -21 -31 17 -56 41
-57 57 0 5 5 5 11 1 7 -4 47 -9 91 -12z m-1569 -7 c-3 -9 -8 -14 -10 -11 -3 3
-2 9 2 15 9 16 15 13 8 -4z m3237 -129 c0 -18 -17 8 -24 34 l-7 25 15 -25 c9
-14 15 -29 16 -34z m123 47 c-7 -2 -21 -2 -30 0 -10 3 -4 5 12 5 17 0 24 -2
18 -5z m-1608 -43 c3 -5 -1 -10 -9 -10 -9 0 -16 -4 -16 -9 0 -5 -10 -7 -22 -3
-15 3 -19 2 -14 -7 4 -6 4 -10 -1 -9 -15 4 -73 -21 -73 -31 0 -13 27 -15 34
-2 8 12 167 13 185 2 12 -8 10 -11 -10 -15 -27 -7 -80 -13 -124 -15 -27 -1
-28 -2 -13 -17 12 -13 20 -14 36 -5 17 9 23 7 35 -9 11 -16 24 -20 61 -19 26
1 52 -3 57 -8 15 -15 1 -36 -18 -29 -16 7 -117 -37 -128 -54 -3 -6 -22 -10
-41 -10 -27 0 -34 -4 -34 -19 0 -11 13 -28 30 -38 17 -9 30 -21 30 -26 0 -21
-81 3 -139 40 l-62 39 23 29 22 28 -34 -6 c-25 -5 -31 -4 -20 3 13 9 12 12 -4
25 -11 8 -28 12 -39 9 -16 -5 -17 -3 -9 13 21 37 69 73 162 117 97 46 124 54
135 36z m-290 -119 c-3 -6 -11 -11 -17 -11 -6 0 -6 6 2 15 14 17 26 13 15 -4z
m1543 -335 c-1 -14 -5 -23 -9 -20 -7 4 0 44 7 44 2 0 3 -11 2 -24z m-418 -466
c0 -5 -2 -10 -4 -10 -3 0 -8 5 -11 10 -3 6 -1 10 4 10 6 0 11 -4 11 -10z"/>
<path d="M2890 3695 c-7 -8 -24 -15 -38 -15 -14 0 -23 -3 -19 -6 9 -10 71 4
93 21 19 14 18 14 -2 15 -12 0 -27 -7 -34 -15z"/>
<path d="M2820 3580 c0 -12 17 -12 45 0 17 7 15 9 -12 9 -18 1 -33 -3 -33 -9z"/>
<path d="M2808 3453 c7 -3 16 -2 19 1 4 3 -2 6 -13 5 -11 0 -14 -3 -6 -6z"/>
<path d="M2000 3386 c-58 -20 -173 -106 -143 -106 6 0 25 7 43 16 60 30 189
-3 255 -65 17 -16 37 -31 45 -35 8 -3 2 -3 -15 0 -16 4 -58 8 -93 10 -34 1
-77 5 -95 9 -24 5 -28 4 -17 -4 12 -8 6 -11 -25 -12 -38 0 -39 -1 -15 -12 14
-6 26 -12 28 -13 2 -1 -6 -21 -18 -44 -21 -41 -21 -42 -1 -35 17 5 21 0 27
-30 3 -19 11 -38 17 -42 7 -4 8 0 3 13 -20 49 -19 92 3 123 13 17 26 31 30 31
5 0 8 -25 8 -54 0 -30 6 -68 12 -85 15 -34 33 -39 196 -51 61 -4 119 -11 129
-16 17 -6 18 -4 12 17 -4 13 -9 36 -11 51 -2 15 -13 41 -25 58 l-22 31 51 -7
c30 -4 51 -3 51 3 0 5 -35 24 -77 42 -43 18 -89 38 -102 44 -13 7 -63 49 -110
94 -47 46 -90 83 -96 82 -5 0 -26 -6 -45 -13z m255 -276 c-5 -8 -11 -8 -17 -2
-6 6 -7 16 -3 22 5 8 11 8 17 2 6 -6 7 -16 3 -22z m83 -35 c12 -25 22 -50 22
-55 0 -6 -20 -10 -44 -10 l-45 0 15 35 c7 19 14 44 14 55 0 33 14 23 38 -25z"/>
<path d="M3000 3363 c-8 -3 -35 -22 -60 -42 -97 -79 -226 -160 -295 -186 -51
-20 -72 -39 -55 -50 8 -5 6 -14 -5 -32 -13 -19 -15 -36 -9 -76 5 -43 8 -48 15
-29 5 12 6 30 2 40 -3 11 1 9 12 -6 12 -17 20 -21 28 -13 6 6 21 11 33 11 13
0 26 5 29 10 4 6 -6 10 -22 10 -27 0 -26 1 25 50 29 28 56 50 60 50 4 0 13
-20 20 -45 19 -72 39 -85 130 -85 l78 0 27 42 c19 29 27 55 27 85 0 42 1 43
28 37 40 -10 42 -12 42 -54 0 -30 -7 -45 -27 -65 -15 -14 -22 -25 -15 -25 18
0 62 46 62 65 0 19 14 19 30 0 7 -8 17 -15 22 -15 5 0 -7 19 -27 43 l-36 42
28 6 c51 11 3 19 -147 27 l-145 7 100 54 99 53 81 -10 c44 -6 81 -9 83 -7 6 5
-66 67 -107 92 -34 21 -79 28 -111 16z m-13 -267 c-4 -9 -11 -16 -17 -16 -17
0 -24 31 -9 41 18 11 34 -5 26 -25z m-312 -6 c-32 -21 -45 -25 -45 -12 0 5 12
13 28 19 43 17 50 15 17 -7z m-35 -57 c0 -5 -7 -17 -15 -27 -15 -20 -15 -20
-15 0 0 12 3 24 7 27 9 9 23 9 23 0z"/>
<path d="M2385 3111 c-8 -14 35 -51 51 -44 19 7 18 23 -3 39 -21 16 -40 18
-48 5z"/>
<path d="M1710 2965 c0 -14 31 -65 41 -65 11 0 -15 55 -31 65 -5 3 -10 3 -10
0z"/>
<path d="M3354 2946 c-16 -13 -25 -28 -21 -32 4 -4 20 4 34 19 35 34 24 45
-13 13z"/>
<path d="M2610 2873 c0 -5 7 -18 15 -29 12 -16 14 -16 15 -3 0 9 -7 22 -15 29
-8 7 -15 8 -15 3z"/>
<path d="M2576 2809 c-26 -21 -34 -39 -17 -39 6 0 22 11 37 23 35 30 16 45
-20 16z"/>
<path d="M2450 2811 c0 -10 30 -24 37 -17 3 3 2 9 -2 15 -8 13 -35 15 -35 2z"/>
<path d="M2483 2673 c-50 -2 -83 -8 -83 -14 0 -6 6 -9 14 -6 8 3 22 -3 32 -14
9 -10 24 -19 33 -19 14 0 14 -2 1 -10 -13 -9 -12 -12 4 -25 11 -8 30 -15 42
-15 34 0 76 22 70 36 -6 17 14 33 52 40 37 8 42 19 10 19 -13 1 -39 3 -58 6
-19 3 -72 3 -117 2z"/>
<path d="M2244 2316 c-8 -32 2 -60 17 -50 8 4 7 9 -2 14 -10 7 -10 11 1 25 10
11 10 19 2 27 -8 8 -13 4 -18 -16z"/>
<path d="M2349 2323 c-9 -10 -28 -27 -44 -39 -17 -12 -26 -25 -21 -32 9 -15
56 -16 56 -2 0 6 -12 8 -27 4 -23 -4 -19 0 19 25 32 21 46 36 42 46 -7 19 -6
19 -25 -2z"/>
<path d="M2505 2160 c-4 -6 13 -29 37 -52 32 -30 37 -39 21 -34 -15 5 -23 3
-23 -5 0 -8 15 -10 53 -5 60 8 71 16 62 45 -9 30 -27 26 -19 -4 5 -20 2 -25
-13 -25 -23 0 -83 53 -83 74 0 18 -25 22 -35 6z"/>
<path d="M1040 3430 c0 -5 5 -10 11 -10 5 0 7 5 4 10 -3 6 -8 10 -11 10 -2 0
-4 -4 -4 -10z"/>
<path d="M950 3380 c0 -5 5 -10 11 -10 5 0 7 5 4 10 -3 6 -8 10 -11 10 -2 0
-4 -4 -4 -10z"/>
<path d="M4099 3334 c-23 -25 -23 -26 -2 -15 23 12 38 29 31 37 -3 2 -15 -8
-29 -22z"/>
<path d="M920 3276 c0 -6 50 -58 73 -75 15 -12 17 -11 17 8 0 12 -6 21 -15 21
-8 0 -15 4 -15 8 0 4 -13 16 -30 25 -16 10 -30 16 -30 13z"/>
<path d="M4192 3140 c-18 -11 -39 -20 -47 -20 -8 0 -15 -9 -15 -20 0 -20 1
-20 30 -5 17 9 30 20 30 26 0 6 5 7 10 4 6 -3 10 -1 10 5 0 6 5 8 10 5 6 -3
10 1 10 9 0 20 2 20 -38 -4z"/>
<path d="M559 2529 c16 -6 28 -6 35 1 7 7 -1 10 -24 9 -33 0 -34 -1 -11 -10z"/>
<path d="M667 2476 c-12 -18 -13 -26 -4 -29 6 -3 -7 -8 -31 -12 -37 -7 -40 -9
-25 -20 10 -8 20 -9 23 -5 3 5 12 5 20 0 24 -15 45 -13 31 4 -9 10 -8 16 3 25
8 7 12 19 9 27 -3 9 2 14 14 14 19 0 41 -38 58 -97 4 -13 13 -23 21 -23 17 0
18 33 3 61 -9 17 -7 21 10 26 19 5 19 6 -7 27 -17 14 -43 23 -68 25 -34 1 -44
-3 -57 -23z m107 -11 c3 -8 1 -15 -4 -15 -6 0 -10 7 -10 15 0 8 2 15 4 15 2 0
6 -7 10 -15z"/>
<path d="M726 2437 c3 -10 9 -15 12 -12 3 3 0 11 -7 18 -10 9 -11 8 -5 -6z"/>
<path d="M550 2430 c19 -13 30 -13 30 0 0 6 -10 10 -22 10 -19 0 -20 -2 -8
-10z"/>
<path d="M4576 2390 c11 -4 36 -5 55 0 31 7 29 8 -21 8 -39 1 -49 -2 -34 -8z"/>
<path d="M655 2352 l-50 -17 39 -3 c49 -4 89 5 84 20 -6 17 -18 17 -73 0z"/>
<path d="M4482 2294 c4 -4 0 -13 -10 -21 -16 -13 -15 -14 6 -9 12 4 31 9 42
12 12 3 20 1 20 -7 0 -10 3 -10 12 -1 7 7 28 12 47 12 19 0 32 2 30 4 -8 7
-154 18 -147 10z"/>
<path d="M4419 2229 c-19 -11 -8 -19 37 -23 21 -3 46 -7 55 -11 10 -3 20 -2
24 4 5 9 -1 12 -30 11 -3 0 -20 6 -39 14 -19 8 -39 10 -47 5z"/>
<path d="M720 1890 c-9 -6 -10 -10 -3 -10 6 0 15 5 18 10 8 12 4 12 -15 0z"/>
<path d="M814 1821 c-16 -10 -43 -23 -59 -29 l-30 -12 30 6 c17 4 38 6 48 6 9
0 17 3 17 8 0 5 12 10 27 12 22 2 24 5 12 15 -12 10 -21 9 -45 -6z"/>
<path d="M900 1782 c0 -5 -10 -14 -22 -20 l-23 -11 25 0 c24 0 60 19 60 33 0
3 -9 6 -20 6 -11 0 -20 -4 -20 -8z"/>
<path d="M4385 1760 c3 -5 14 -10 23 -10 15 0 15 2 2 10 -20 13 -33 13 -25 0z"/>
<path d="M840 1736 c0 -9 30 -14 35 -6 4 6 -3 10 -14 10 -12 0 -21 -2 -21 -4z"/>
<path d="M4232 1705 c-11 -13 -9 -15 13 -15 14 0 28 -6 31 -14 3 -8 15 -14 27
-14 12 1 38 -2 57 -6 31 -6 30 -5 -11 12 -26 11 -57 27 -70 36 -28 19 -30 19
-47 1z"/>
<path d="M4136 1671 c-7 -10 76 -60 109 -67 16 -3 14 2 -10 21 -16 13 -36 24
-42 25 -7 0 -13 7 -13 15 0 16 -35 21 -44 6z"/>
<path d="M1230 1430 c0 -5 11 -10 24 -10 14 0 28 5 31 10 4 6 -7 10 -24 10
-17 0 -31 -4 -31 -10z"/>
<path d="M1197 1398 c-15 -11 -27 -25 -27 -33 0 -18 27 -38 41 -29 9 5 7 11
-6 20 -15 11 -16 16 -5 29 15 19 30 19 30 1 0 -8 8 -12 23 -9 14 3 31 -2 40
-11 26 -26 61 -19 50 10 -3 8 -16 14 -28 14 -13 0 -27 5 -30 10 -4 6 -10 8
-15 5 -5 -3 -18 -2 -27 4 -14 7 -26 4 -46 -11z"/>
<path d="M3700 1341 c0 -6 10 -11 22 -11 16 0 19 -3 11 -11 -5 -5 -29 -10 -52
-11 -29 0 -44 -6 -51 -18 -5 -9 -6 -20 -3 -24 12 -11 50 -6 63 9 7 8 21 15 32
15 11 0 28 5 39 11 17 8 23 7 35 -8 18 -24 18 -34 -1 -27 -9 4 -15 0 -15 -9 0
-24 45 -15 48 10 2 16 -7 28 -35 47 -45 29 -93 43 -93 27z"/>
<path d="M3760 1220 c-14 -4 -18 -8 -9 -9 8 -1 24 -9 35 -18 29 -26 85 -56 91
-49 4 3 2 6 -3 6 -14 0 -60 43 -67 63 -7 19 -10 19 -47 7z"/>
<path d="M3660 1210 c0 -5 5 -10 10 -10 6 0 10 -5 10 -11 0 -6 10 -20 23 -31
12 -11 16 -16 8 -12 -9 5 -12 3 -7 -4 12 -20 36 -14 28 6 -18 46 -72 92 -72
62z"/>
</g>
</svg>
