<?xml version="1.0" standalone="no"?>
<!DOCTYPE svg PUBLIC "-//W3C//DTD SVG 20010904//EN"
 "http://www.w3.org/TR/2001/REC-SVG-20010904/DTD/svg10.dtd">
<svg version="1.0" xmlns="http://www.w3.org/2000/svg"
 width="260.000000pt" height="260.000000pt" viewBox="0 0 260.000000 260.000000"
 preserveAspectRatio="xMidYMid meet">

<g transform="translate(0.000000,260.000000) scale(0.100000,-0.100000)"
fill="#000000" stroke="none">
<path d="M1091 2584 c-465 -81 -863 -421 -1011 -863 -46 -136 -62 -224 -67
-376 -21 -581 336 -1095 890 -1280 155 -52 273 -68 452 -62 217 8 364 45 549
140 329 168 569 465 668 827 21 78 23 105 23 330 0 225 -2 252 -23 330 -132
481 -506 836 -997 946 -100 22 -376 27 -484 8z m463 -105 c443 -88 802 -427
920 -869 180 -670 -243 -1351 -924 -1490 -128 -26 -335 -28 -457 -5 -495 94
-876 478 -968 974 -20 108 -20 314 0 422 46 248 163 469 340 644 287 284 687
403 1089 324z"/>
<path d="M999 1971 c-24 -25 -29 -37 -29 -80 l0 -51 -135 0 c-131 0 -137 -1
-160 -25 l-25 -24 0 -571 0 -571 25 -24 24 -25 449 0 449 0 27 25 c22 20 26
32 26 80 l0 55 134 0 c128 0 136 1 163 24 l28 24 0 572 0 572 -28 24 -28 24
-445 0 -446 0 -29 -29z m891 -596 l0 -536 -117 3 -118 3 -3 118 -3 117 48 0
c56 0 78 11 70 34 -5 12 -20 16 -62 16 -52 0 -55 1 -55 25 0 23 4 25 44 25 27
0 46 5 49 13 9 26 -6 37 -49 37 l-44 0 0 95 0 95 60 0 c52 0 60 2 60 19 0 23
-19 31 -76 31 -42 0 -44 1 -44 28 0 17 -9 37 -21 48 -21 19 -21 19 57 24 71 4
79 7 79 25 0 19 -8 20 -106 23 -91 2 -109 6 -124 22 -18 20 -17 20 53 20 83 0
102 6 102 31 0 18 -9 19 -113 19 -108 0 -115 1 -137 25 l-23 25 157 0 157 0
-3 23 c-3 22 -5 22 -184 25 -146 2 -184 5 -194 17 -10 12 -41 15 -151 15
l-139 0 0 35 0 35 415 0 415 0 0 -535z m-578 253 l3 -123 128 -3 127 -3 0
-404 0 -405 -420 0 -420 0 0 530 0 530 290 0 289 0 3 -122z"/>
<path d="M883 1354 c-3 -9 0 -20 8 -25 18 -11 490 -11 508 0 8 5 11 16 8 25
-6 14 -37 16 -262 16 -225 0 -256 -2 -262 -16z"/>
<path d="M965 1100 c-16 -25 13 -30 186 -30 167 0 180 1 177 18 -3 15 -21 17
-180 20 -112 1 -179 -1 -183 -8z"/>
<path d="M965 1020 c-4 -6 -1 -17 5 -25 10 -12 45 -15 174 -15 88 0 167 4 175
9 8 5 11 16 8 25 -6 14 -30 16 -181 16 -111 0 -177 -4 -181 -10z"/>
<path d="M963 934 c-3 -9 0 -20 8 -25 8 -5 91 -8 184 -6 163 2 170 3 170 22 0
19 -8 20 -178 23 -156 2 -178 1 -184 -14z"/>
</g>
</svg>
